<svg id="Layer_1" xmlns="http://www.w3.org/2000/svg" viewBox="0 0 1812.4 738">
    <style>
        .cls-1{fill:#081d2d;}
    </style>
    <path class="cls-1" d="M1574.5,305.3l319.3,114.9l0.8-12.9l-314.5-113.9l11.3-23.2l252.7,116.3l1.6-3.4l-133.2-61.3l3.3-16.7
		c6.1-4.2,12.6-8.5,14.9-9.8c2,3.3,8.5,16.7,14,28.8l0.4,0.9h10.4l0.3-0.2c7.2-3.7,22.1-11.3,22.1-11.3c0.5-1.6,2.9-8.1,4.9-12.9
		l21.5,8.7l0.5-1.6c0-0.1,3.1-10.2,6.1-20.2c6.3-21,6.1-21.1,5.5-22c0,0-20.5-7.2-32.1-11.2l-1.5-0.5l-8.7,29.5l-28.1-45.5l7.2-21.4
		l77.5,33.8l2.8-6.4l-118.1-51.4l39.1-91.2c38.5-30,87.6-51,139.2-59.5l-1.8-10.9c-46.9,7.7-91.7,25.5-129,50.7l42.3-98.5l-3.4-1.1
		l-44.3,103.5c-6,4.3-11.8,8.7-17.3,13.3c-16.6,13.9-48.7,32.1-87.9,46.3l87-178.9l-12.8-2.2l-91.4,186.9c-3.1,1-6.1,1.9-9.3,2.8
		l-33.3-14.5l100.7-164.2l-3.2-2l-101,164.7l-100-43.5l48.6-112l-3.4-1.5L1486,92.3l-71-30.9l0.8-1.7l-3.4-1.6l-0.8,1.7L1376,43.7
		l65.2-141.4l-10.3-4.7l-13.8,29.9l-2.4-2.7c-0.7,0.6-69.1,61.6-101.3,86.2c-0.3,0.2-0.7,0.5-1.1,0.8L1279.7-37
		c47.3-23.5,85.1-53.3,85.7-53.7l0.3-0.2l19.2-36.5l-3.3-1.7l-18.8,35.9c-6,4.6-96.1,74-170.5,80.7c-13.8,1.2-27.4,4-40.4,8.1
		c-40.9,13.1-67.1,37.2-76.5,47.1c-8.7-9.4-15-17.2-16.2-21.2c-0.7-2.1-0.6-5.4-0.5-8.9c0.2-7.7,0.3-18.3-8.4-25.5
		c-12-10.1-37.1-10.7-81.5-2.1c-4.9,0.9-9.4,1.7-13.8,2.3c3.5-45,39.4-106,39.8-106.7l-9.7-5.8c-1.8,3.1-38.5,65.4-41.4,113.6
		c-55.5,3.9-66.2-24.5-74.2-46c-2.5-6.6-4.6-12.4-7.8-16.7c-7.9-10.8-38-27.7-64.8-41.4l7.5-14l-10-5.3l-7.7,14.3
		c-17.2-8.6-31.5-15.1-35.2-16.7l-4.6,10.3c8.2,3.7,20.8,9.6,34.5,16.5l-33.1,61.7L691-77.8l15.6-37.2l-3.5-1.4l-15.6,36.9
		l-48.8-24.5l7.6-17.6l-3.4-1.5l-7.5,17.4l-5-2.5l-1.7,3.3l5.2,2.6L572.7,39.4L512.6,9.8l19.1-41.5l19.5,8.1l27-34.2l18.5-57.4
		l-3.6-1.1l-18.2,56.8l-24.8,31.5L533.3-35l39.1-85l-10.3-4.7L391.8,245.7l-31-9L476.7-41.5l3.5-0.3l60.4-87.4l-9.3-6.4l-57.4,83.1
		l-65.5,5.9l-167.1-80.8l-4.9,10.2l11,5.3l-96.1,136L10.3-37.2l61.5-104.4l-3.3-1.9L6.8-38.7L-94.5-82.6l-1.5,3.4L4.9-35.4
		L-12.8-5.5l-81.7-37.1l-1.5,3.4l81.4,37L-58.4,72l-52.6-24.1l-4.7,10.3l185.4,84.7l-40.9,89.6L-112.6,168l-1.6,3.4l107.4,49
		c-3,6.5-14.6,31.5-31.8,70.3l-99.1-42.4l-1.4,3.5l99,42.3c-5.2,11.6-10.8,24.5-16.9,38.3c-3.4,7.8-5.7,15.3-7,22.5l-66-37.5
		l-1.8,3.3l67.2,38.1c-3.1,21.9,2.4,40.5,10.4,55.2l-37.1,81.1l3.4,1.6l35.9-78.6c10.4,17.3,23.8,28.3,27.8,31.5l-32.2,73.8
		l-99.6-44.1l-1.5,3.4l99.6,44.1l-18,41.2l-40.7-17.1l-1.4,3.5l40.7,17.1l-9.3,21.2l3.4,1.5l9.3-21.2l79.6,33.4l-22,50.8l-86.8-34.4
		l-4.2,10.5l86.4,34.3l-62.6,144.6l-60-24.5l-1.4,3.5l59.9,24.4l-17.4,40.1l10.3,4.5l17.5-40.3l24.6,10l-46.6,39.8l2.4,2.9l48.1-41
		l106,43.1l-21,56.6l-163.8-53.7l-1.1,3.6l163.6,53.7l-13.1,35.6l-250.8-83.2l-1.2,3.6l250.7,83.1l-13.4,36.3l-165.8-56.3l-1.2,3.6
		l165.8,56.2l-12,32.5l-126.8-47.1l-1.3,3.5l126.8,47.1l-13.8,37.3l-94.1-33l-1.2,3.6l94.1,33l-14.3,38.7l-84.8-32.5l-1.4,3.5
		l84.8,32.5l-14.7,39.8l-115.7-49.4l-1.4,3.5l115.8,49.5l-14.8,40l-70.3-23.8l-3.6,10.7l70,23.7l-16.3,44.3l3.5,1.3l16.4-44.4
		l75,25.4l-111.1,76.3l6.4,9.3L21,1258.2l36.4,20.2L-82.5,1422l2.7,2.7l140.6-144.3l80.5,44.7l-24.6,73.8l3.6,1.2l24.5-73.5
		l89.4,34.8l-31.8,68.3l10.3,4.8l31.9-68.7l48.1,22.3l-3.3,10.8l3.6,1.1l3.1-10.3l31.9,14.8l4.8-10.3l-33.3-15.5l23.6-77.9l11.8,4
		l1.2-3.6l-11.9-2.4l12.4-39.3h32.7l-35.6,141l3.6,0.2l16.9-67.9l45.2-5.2l-21.1,78.1l3.6,0.9l21.3-79.1l40.7,11.4l-21.5,81.2l3.6,1
		l29.3-110.7l38,10.3l-17.2,72.2l3.6,0.8l17.2-72.2l38.8,10.5l-15.6,52.4l3.6,1.1l15.6-52.5l39.9,10.8l-13.8,55.2l3.6,0.9l28-111.7
		l37.5,10.6l-24,85.7l3.6,1l8.1-28.9l40.6,10l-12.4,42.5l10.9,3.2l12.8-43.9l63.4-21.5l14.4,35.9l3.5-1.4l-14.4-35.7l94.9-32.2
		l15.2,40.1l-25.5,27.2l2.7,2.6l24.2-25.8l10.7,28.2l3.5-1.4l-11.3-29.9l61.6-65.6l29.6,22.9l-55.5,73.1l9,6.8l55.5-73l49.8,38.4
		l-22.3,30.1l3,2.3l22.2-30l27.1,21l2.3-3l-27.2-21l58-78.3l51.9,42l-52.5,72.3l3,2.2l27.2-37.5l47.9,32.7l2.1-3.1l-47.8-32.7
		l22.9-31.6l114.6,92.8l7.1-8.7l-73.4-59.4l19.1-28.7l54.9,37.3l6.2,29.9l3.6-0.8l-25.8-125l23.5-35.4l49.3-5.1l43.3,169.4l3.6-0.9
		l-43.1-168.9l48-4.9l36.6,174.6l3.6-0.8l-36.5-174.3l45-4.6l27.7,52.8l10-5.2l-25.6-48.8l50.3-5.2l-0.4-3.7l-51.7,5.3l-84.9-162
		l78.5-61.2l-2.3-3l-78.4,61.1l-39.1-40.4l132.3-92.3l-2.1-3.1l-132.8,94l-40.9-40.9h67.7l347.9-283.4l25.2-1.6l-12.8,107.2l3.4,0.5
		l13-107.9l39.2-2.5l-12.6,105.2l3.4,0.5l12.8-105.9l93.2-6l-0.2-3.7l-92.5,5.9l7.9-65.7l105.4,0.1l0.4-11.2l-37.8-0.2l-63.5-25.7
		l6.2-51.3l19.3,3l6.9-47.6l-20.3-4.8l3.9-32.1l74.9,26.5l1.5-3.4l-68.9-24.3l65.4-6.7l-0.5-3.7l-8.4,0.9l0.2-0.6l-251.1-108.8
		l0.6-1.3L1574.5,305.3z M1709.8,320.5l-41.1-18.9l13.6-31.7l21.1,14.1l-2.5,11.1l11.9,10.3L1709.8,320.5z M1725.4,295
		c-2.5,1.6-6.1,4-11.3,7.6l-10-8.6l2.2-9.5l25-7.4l3.1,11.4L1725.4,295L1725.4,295z M1784.9,257.7c19.1,6.6,26,8.9,28.7,9.8
		c-1.2,4.9-7,24.5-11.1,37.8l-18.5-7.5l-7.6-10.8L1784.9,257.7z M1773.7,288.2L1773.7,288.2l0.2,0.3l1.3,2.1l0,0l5.1,8
		c-3,7.4-4.3,11-4.8,12.8c-0.1,0-0.1,0.1-0.2,0.1c-0.6,0.3-1.5,0.7-2.5,1.2c-2,1-4.8,2.4-7.5,3.8c-4.6,2.4-9.3,4.7-10.5,5.4h-7.7
		c-8.8-19.1-12.4-26-14.1-28.5l20.3-14.6l14.2-0.7L1773.7,288.2z M1765.8,275.3l-14.3,1l-14.5,10.3l-2.8-10.4l26.9-8.5L1765.8,275.3
		z M1759.5,265.1l-25.8,8.2c-3.7-5.8-8.9-14.3-10.2-16.3c0.7-2.6,3.9-13.5,5.6-19.2l15.1,2.5L1759.5,265.1z M1750.5,215.1l-7.3,22
		l-16.2-2.7l-0.4,1.3c-6.1,20.9-6.1,21.1-6.2,21.2c-0.2,0.8-0.2,0.8,10.2,17.3l-25.4,7.5l-21.8-14.6l29.4-68.4L1750.5,215.1z
		 M1645.7,158.7c48.8-16.3,85.2-37.9,101.7-51.8c0.5-0.4,0.9-0.8,1.4-1.2l-36.5,85.1l-67.9-29.6L1645.7,158.7z M1641.5,167.7
		l68.1,29.7l-44.1,102.8l-72.4-33.3L1641.5,167.7z M1628.8,163.9l-47.6,97.4l-49.5-22.8l38.3-62.5
		C1591.5,173.5,1611.6,168.9,1628.8,163.9z M1213.5,1198.5l5.3,25.7l-25.9,2.7L1213.5,1198.5z M1187.9,1227.4l-88.3,9.1l64.7-87.4
		l46.6,37.1l1.5,7.4L1187.9,1227.4z M1214.3,1184.1l-47.8-38.1l45.9-62l49.5,41.2l-46.6,64.2L1214.3,1184.1z M1163.6,1143.7
		l-46.5-37.1l47.4-62.4l45,37.5L1163.6,1143.7z M307.1,1173.1l-20.4,75.1l-101.5-13.7l93.9-211.4l60.2,31.8L308,1169.6l-37.5-7.9
		l-0.8,3.6L307.1,1173.1z M39.6,1211l14.1-44.1l31.1,12L49,1215L39.6,1211z M46.2,1218l-12.9,13l5.2-16.3L46.2,1218z M145.2,177.5
		l-39.4,90.2L67.1,250l39.4-90.2L145.2,177.5z M77.9,134.3l50.5-71.4l13.6,6.2l-34.4,78.8L77.9,134.3z M359.5,118.3l-42,97.5
		l-35.3-14.6l42.5-98L359.5,118.3z M326.1,99.8L373.5-9.5l18.6-11.2l14.3-5.6l10.5,14.6v1.2H415l-54.1,125.4L326.1,99.8z
		 M463.3,240.1l-11.9,28.1l-13.4-5.8l40.4-91.2l14.4,6.2l-6.7,18.6l-14.1,9.7l2.1,3.1l15-10.4l7.1-19.5l13.6,5.9l-39.6,91.6
		l-15.4-6.8l11.9-28.2L463.3,240.1z M964.4,157.2l26.8-15.4c5.8,15,10.5,27,12.9,33.2l-17.7,10.9l-47.7-16.2l-2.5-58l50.2,17.5
		c1.1,3,2.3,6,3.4,9l-27.3,15.7L964.4,157.2z M1475.9,453.4l-60.8-24.6l61.2-99.8l58.2,20.6L1475.9,453.4z M1519.7,402l131.2,33.9
		l-159.6,16.2L1519.7,402z M1553,510.9l-68.5-46.8l1.4-2.5l66,26.8C1552.2,490.2,1553.4,499,1553,510.9z M1554.6,526.7l29.2,20.2
		l-0.1,0l-4.7,39.8l-54.6-0.2c19.8-17.5,27.3-41.1,30-58.9C1554.6,527.2,1554.6,527,1554.6,526.7z M1551.5,527.1
		c-2.8,18-10.6,42.2-31.7,59.3l-104.4-0.5l63.4-111.7l73.1,50.5C1551.8,525.6,1551.7,526.3,1551.5,527.1z M1280,672.6l-3.4-22
		l34.6-55.5l47.8,1.7l1.6,20.8L1280,672.6z M1325.3,690.8l-42.7,2.9l-0.5-8.8l41.2-28.2L1325.3,690.8z M1319,261.8l-36.2-16l1.4-3.1
		c11.4-8.5,33.4-23.9,61-38.2L1319,261.8z M1350.7,201.8c8.4-4.2,17.2-8.2,26.3-11.9l-35.7,81.7l-18.8-8.3L1350.7,201.8z
		 M1320.9,266.8l38.9,17.2l-48.1,100.9l-1.5-0.6l-0.3-0.2l-42.1-1.6L1320.9,266.8z M1395.9,299.9l-44.1,101.9l-36.8-15.5l48.1-100.8
		L1395.9,299.9z M1364.7,282.3l45.6-95.5l28.9,13.3l-41.9,96.5L1364.7,282.3z M1389.7,462.4l-32.4,4.3l-2.4-59.6l54.8,23.2
		L1389.7,462.4z M1413.1,432l55.3,22.4l-73.9,7.5L1413.1,432z M1353.6,471l1.8,46.1l-41.3,66.2l0.2-107.1L1353.6,471z M1314.4,472.5
		l0.2-82.3l36.5,15.4l2.5,61.7L1314.4,472.5z M1355.7,523.8l2.5,61.7l-40.1-1.4L1355.7,523.8z M1357.4,470.5l29.6-4l-28,44.9
		L1357.4,470.5z M1309,387.9l1.7,0.7l-0.2,84.4l-41.5,5.5l-2.2-92.2L1309,387.9z M1310.5,476.8l-0.2,107l-38.9-1.4l-2.4-100.1
		L1310.5,476.8z M1306.9,595l-31.2,50l-8-51.4L1306.9,595z M1276.5,675l-26.4,18l23.4-37.5L1276.5,675z M1278.4,687.4l0.5,6.5
		l-11.2,0.8L1278.4,687.4z M1361.5,630.7l4.3,57.4l-36.8,2.5l-2.1-36.3L1361.5,630.7z M1362.8,596.9l26.7,0.9l-25.4,17.3
		L1362.8,596.9z M1362,585.7l-2.7-67.5l32.6-52.2l81.6-8.3l-72.3,128.1L1362,585.7z M1411.6,427.3l-56.4-23.8l44-101.9l73.5,26
		L1411.6,427.3z M1400.7,298.2l41.9-96.6l28.2,13l-41.1,93.9L1400.7,298.2z M1440.7,196.6l-28.8-13.3l0.2-0.3l-3.4-1.6l-0.2,0.4
		l-3.7-1.7c15.3-4.5,31-7.6,46.7-8.4L1440.7,196.6z M1406.9,185.2l-45.5,95.4l-16.7-7.4l37.3-85.3c5.7-2.2,11.6-4.3,17.5-6.2
		L1406.9,185.2z M1383.2,175.6c-8.3,3-16.8,6.5-25.3,10.4l9-19.6l16.9,7.9L1383.2,175.6z M1352.6,188.5c-4,1.9-8,3.9-12.1,6
		c-21,10.9-36.4,20.6-46.8,27.6l34.1-74l35.6,16.6L1352.6,188.5z M1272.5,241.3l-34.8-15.3l43.1-99.7l36.8,17.2L1272.5,241.3z
		 M1234.2,224.5l-3.9-1.7l-5.1,2.9l-16.6-53.6l2.5-0.7l28.6-64.3l37.7,17.6L1234.2,224.5z M1177.5,579l0.6-0.2v-84.2l39.9-5.5
		l1.1,91.3L1177.5,579z M1219.7,591.9l2.7,121.2l-44.3,30.6V590.4L1219.7,591.9z M1178.1,490.9v-108l38.6,1.4l1.2,101.1
		L1178.1,490.9z M1152.9,378.2l0.2-0.4l0.2-0.2l30.8-113.8c10.9,36.5,21.8,73.8,30.7,104.8l0.2,11.9L1152.9,378.2z M1130.8,945.9
		l-0.9-155l43.6-31v51.5h-18.2v48.5l18.2-0.6v86.6H1130.8z M1172,956.5l-38.7,50.6v-50.6H1172z M946,945.9l0.5-30.2l38.8-25.7
		l-1.4,55.9H946z M983.7,956.5l-0.8,29l-38.6,48.2l1.4-77.2H983.7z M946.4,900.3l-2.2-78.3v-0.2c0-0.2-2.6-19.4,10.2-34.5
		c7.6-8.9,19-14.7,34-17.1l-2.6,103.2L946.4,900.3z M940.5,822.4l2.9,80.6l-50.1,34.6v-42.3l-4.1-1.2l6.2-127l35.8,7.5l41.6-140.2
		l3-4.6l17.7,3.8l-1.6,2.6l-0.2,0.5l-3.3,130.1c-16.3,2.5-28.6,8.7-36.9,18.5C938,801,940.2,820.6,940.5,822.4z M904.6,945.9
		l38.1-26l-0.5,26H904.6z M942,956.5l-1.6,81.3l-45.4,56.5l2.5-137.8H942z M471.4,1183.6l10.8-36.3l63.4,13.8l-3.3,19.9l-47.9,34.1
		L471.4,1183.6z M475.3,1195.3l-28.7,18.2l1.9-10.3l20.5-16.5L475.3,1195.3z M483.3,1143.7l12.5-41.9l57.1,16.6l-6.5,39
		L483.3,1143.7z M51.2,529.7L65.4,497l49.2,26.3l-27.4,63.8l-51-22.6l13.5-31.3L75,545.7l1.7-3.3L51.2,529.7z M326.4,709.6
		L233.5,673l56.2-147.3l2.3-1.7l4.8,1.7v89.5l-1,0.2L326.4,709.6z M1003.8,188.3l-12,84.5l-91,11.5l-9.9-9.6l46-45.4L1003.8,188.3z
		 M938.8,173.6l43.4,14.7l-41.6,25.5L938.8,173.6z M989.5,870.9l2.6-101.1c3.7-0.5,7.7-0.8,11.8-0.8l30-0.5l-0.6,72.6L989.5,870.9z
		 M1033.1,857.2l-0.7,88.6h-44.7l1.4-59.3L1033.1,857.2z M1003.7,765.2c-4,0.1-7.9,0.3-11.6,0.8l3.3-128.4l2-3.3l37.5,8l-1,122.4
		L1003.7,765.2z M750.9,1105.6l20.1-68.7l69.9,56.6L803,1144L750.9,1105.6z M800.7,1146.9l-22.9,30.5l-45-9.5l17-58.5L800.7,1146.9z
		 M217.1,715.7l79.3,35.9l1.5-3.4l-79.5-35.9l13.7-35.9l95.6,37.7l11.5,35.2l-63,23.8l-70.4-28L217.1,715.7z M208.1,707.8
		l-47.4-21.5l28.3-26.7l32.5,12.8L208.1,707.8z M827.2,321.9l-8.1,8.1l-80.2,86.8l-53.6-44.8l2.4-2.7c4-1.6,8-4,11.5-7.4
		c16.3-16.3,49.6-54.2,59.1-65L827.2,321.9z M761.1,285.8L821,172.2l49.1,23.9l-53.7,109.8L761.1,285.8z M1019.6,563.7l35.1-52.8
		l14.2-1.9l0.2,0.2l-44.7,73.5L1019.6,563.7z M1034.2,638.3l-34.8-7.4l23.4-38.5L1034.2,638.3z M565,841.8l11.9-37.9l20.2,6.6
		l-11.9,37.6L565,841.8z M584.1,851.7l-3.6,11.2l-20.3-6.2l3.6-11.3L584.1,851.7z M589.5,594.6c8.7-9.1,16.1-16.9,20.7-21.9
		l32.2,10.1L613,676.5l-39.3-12.8l18.1-57.6L589.5,594.6z M621.1,859.3l-32.3-10l11.8-37.6l30.7,10L621.1,859.3z M634.9,822.9
		l12.3,4l-12.1,36.8l-10.3-3.2L634.9,822.9z M619,805.8l-38.6-12.6l11.9-38.2l19.8,15.4l-1.5,11.2l11,10.3L619,805.8z M665.5,693.7
		c0.9-7.4,2-15.2,2.6-18.2l13.4,2.1l5-10.1c3-1.6,17.6-9.4,30.6-14.9l-16.7,52.5L665.5,693.7z M699.3,708.7l-15.8,60.5l-11.4-16.9
		l-16.6-30.3l9.1-24.8L699.3,708.7z M671.3,672.2c4.5-3.7,13.1-10.4,19.1-14.9l0.7-0.5l0.8-11.2c3.7-1.1,8.8-1.9,10.5-0.2
		c2.1,2.2,3.6,5.8,4.3,7.8c-11.5,5.3-21.7,10.9-22.4,11.3l-0.5,0.3l-4.3,8.7L671.3,672.2z M710.1,651.6c-0.8-2.4-2.6-6.2-5.1-8.8
		c-3-3.2-9.3-2.1-12.9-1.1l0.8-13.1l11.8-26.1l10.5,3.2c0,4,0.3,14.4,2.9,18.8c1.7,3,1.2,15.6,0.5,23.5
		C715.8,649.1,712.9,650.3,710.1,651.6z M689.2,627.6l-0.4,5.2l-52.4-18.5l9.6-30.5l55.1,17.4L689.2,627.6z M688.6,636.7l-1.2,18.1
		c-6.9,5.3-17.3,13.4-20.8,16.3l-41-22.2l9.7-30.9L688.6,636.7z M664.6,674.3c-0.5,2.3-1.4,7.2-2.7,18.2l-45.3-14.8l7.8-25.1
		L664.6,674.3z M661.7,696.2l-7.1,21.3l-1.6,4.6l-18.3-1.1l-5.5,21.9l9.5,17.9l-24.4,7.3l-20.9-16.6l22.3-70L661.7,696.2z
		 M614.4,780.1l1.3-9.1l24.2-7.7l2.7,12.1l-2.4,1.8l-16.6,11.6L614.4,780.1z M642.4,758.6l-9.1-17.3l4-16.5l15.5,0.8l14.2,25.2
		L642.4,758.6z M668.7,754.1l0.2,0.2l4.6,6.8l-13.4,1.4l-14.1,10.4l-2.4-10.7L668.7,754.1z M661.4,766.1l14.4-1.5l13.2,19.5
		l-4.7,12.6l-19.4,10.8h-8.8l-12.5-27.1L661.4,766.1z M686.3,773.3l7.9-30.2l28,11.4L711,790.4l-17.8-6.8L686.3,773.3z M695.1,739.5
		l7.7-29.6l30.2,9.8l-9.7,31.3L695.1,739.5z M703.9,706.3l17.7-55.5c1.9-0.8,3.7-1.4,5.5-2c12.5-4,21.9,9.8,23.9,13.1l-16.9,54.2
		L703.9,706.3z M725.9,645.3c-1.1,0.4-2.4,0.8-3.6,1.2c0.5-6.2,1.4-19.7-1.1-23.9c-1.7-2.9-2.2-10.8-2.4-15.6l44.7,14.1l-11.2,36.3
		C748.3,651.6,738.7,641.2,725.9,645.3z M719.4,603.2l31.3-96.6l44.1,14.3l-30,96.6L719.4,603.2z M715.8,602l-31.2-9.8l26.6-98.5
		l35.9,11.6L715.8,602z M708.6,489l-16.3-5.2l24.9-27L708.6,489z M707.6,492.6L681,591.1l-68-21.4c1.2-1.3,2.1-2.2,2.3-2.5
		l74.3-80.4L707.6,492.6z M570.1,662.5L533,650.4c16.4-14.7,36.9-35.5,53.3-52.6l1.6,8L570.1,662.5z M569.1,666.1l-13.1,41.5
		l-67.2-20.9c9-8.4,17.9-16,25.3-20.9c4.3-2.8,9.6-7.1,15.7-12.5L569.1,666.1z M554.8,711.2l-12,38.2L456.6,719
		c7.7-8.1,18.2-19.1,28.9-29.3L554.8,711.2z M572.6,667.3l39.3,12.8l-35.1,111.8L537.4,779L572.6,667.3z M587.7,852.8l32.4,10.1
		l-3,11.2L584.2,864L587.7,852.8z M619.7,878.9l9.4,2.9l-6.8,20.9l-8.4-2.3L619.7,878.9z M620.6,875.3l3-11.2l10.2,3.2l-3.6,11
		L620.6,875.3z M637.5,868.4l13.6,4.3l-3.4,11l-13.8-4.3L637.5,868.4z M638.7,864.8l12.1-36.7l12.7,4.2L652.2,869L638.7,864.8z
		 M622.5,807l2.7-14.7l15.3-9.6l13.4,28.8h12.1l21.4-11.9l4.6-11.8l18.1,6.5L698.3,832L622.5,807z M736.6,720.8l52.1,17L753.8,850
		l-52-17.1L736.6,720.8z M737.6,717.3l29.6-95.1l52.3,16.5l-29.7,95.6L737.6,717.3z M768.4,618.5l30-96.6l50.1,16.3l0.4,0.2l1.9-0.2
		L820.7,635L768.4,618.5z M849.3,534.6l-49.8-16.1l5.7-18.8l29.2,8.8l9.6-15.4l18.7,6.7L852,534.2L849.3,534.6z M878,463l55.1,19
		l-13.7,43.1l-63.3,8.4L878,463z M875.6,458.1l-51.9-17.9l31-99.9l46.2,36.4L875.6,458.1z M874.5,461.7l-10.7,34.4l-21.3-7.6
		l-9.7,15.6l-26.4-8l16.3-52.3L874.5,461.7z M795.9,517.2l-44.1-14.3l24.3-75.2l42.8,14.8L795.9,517.2z M748.3,501.8l-36.1-11.7
		l10.6-39.3l29-31.5l20.8,7.2L748.3,501.8z M662.4,499.5l-47.5-38.9l-1.2,1.4l0.8-1.7l-4.3-1.9l72.7-83.7l53.5,44.7L662.4,499.5z
		 M606.5,456.9l-18.5-8.2l45-89l6.9,3c2.7,1.4,22.5,11.6,41.1,8.3L606.5,456.9z M607.5,461.4l5.2,2.3l47.2,38.6L608.4,558
		l-45.1-44.1l-2.7,2.7l45.2,44.2c-9.5,10.2-74.4,79.8-98.1,95.6c-16.3,10.9-38.6,33-53.9,49.1l34.6-108.3l0.7,0.6L607.5,461.4z
		 M541.6,753l-7.8,24.9l-93.3-30.6l5.2-16.5c1.3-1.4,4.2-4.6,8.1-8.8L541.6,753z M534,789.8l39.4,12.9L559.1,848l-39.4-12.8
		L534,789.8z M558,851.6l-15.6,49.9l-39.4-12.7l15.6-50L558,851.6z M559.2,860.3l20.3,6.2l-13.4,42.5l-20.2-6.5L559.2,860.3z
		 M583,867.7l33,10.2l-11.8,43.6l-34.6-11.2L583,867.7z M612.9,904.1l8.1,2.2l-6.1,18.6l-7-2.3L612.9,904.1z M632.6,883l13.9,4.3
		l-13.3,43.5l-14.7-4.8L632.6,883z M666.9,833.4l28,9.1l-30.5,98.2l-27.5-8.9L666.9,833.4z M698.4,843.7l52,17.1l-30.5,98L667.9,942
		L698.4,843.7z M722.5,963.5l53.4,17.2l-12.9,42.9l-53.8-17.4L722.5,963.5z M723.7,959.8l30.5-98l12.1,4l-19.4,83.8l36.4,6.8
		l-6.2,20.7L723.7,959.8z M770.8,950.3l15-42.8l10.6,4.6l-12.2,40.8L770.8,950.3z M783.7,902.5l-16.6,47.3l-15.8-3l18.4-79.7
		l36.8,12l-8.8,29.3L783.7,902.5z M757.4,851.1L792.3,739l53.3,17.4l-35.7,111.9L757.4,851.1z M793.3,735.4l29.7-95.7l54.2,17.1
		l-30.6,96L793.3,735.4z M824.2,636.1l11.5-37.2l56,12.5l-13.3,41.8L824.2,636.1z M836.9,595.3l17.9-57.8l63.2-8.4l-25.1,78.8
		L836.9,595.3z M930.4,527.5l45.5-6.1l-59,91.9l-13-2.9L930.4,527.5z M931.7,523.5l28.3-88.7l3.2-9.1l49.3,38.8l-33.8,52.7
		L931.7,523.5z M957.8,407.1l-43.1-33.9l56.5-4.6L957.8,407.1z M1015.4,466.9l49.3,38.8l-81.2,10.9L1015.4,466.9z M1080.3,503.7
		l-2.4-1.9l43.9-72.3l0.7,68.6L1080.3,503.7z M1122.6,501.8l0.4,35.4l-38.4-30.3L1122.6,501.8z M1074.9,499.4l-53.4-42.1l35.6-55.5
		l53.1,39.5L1074.9,499.4z M1072,511.4l51,40.2l0.5,51.6l-38.7,15.9l-19.1-97.5L1072,511.4z M1123.6,607.3l1.6,155.7l-42.6,0.8
		l2.7-140.8L1123.6,607.3z M1082.6,767.5l42.7-0.8l0.1,11.5l-43.5,29.7L1082.6,767.5z M1112.2,438.1l-53-39.4L1084,360l62.8,21
		L1112.2,438.1z M1056,396.5l-0.8-0.5l-4.4-33.7l28.6-2.3L1056,396.5z M1051.8,398l2.2,1.7l-35.5,55.3l-12.8-10.1l-8.1-78.3l49.6-4
		L1051.8,398z M1001.5,441.7l-34.5-27.1l16.4-46.8l10.3-0.9L1001.5,441.7z M983,335.1l-10.4,29.7l-62.2,5l-4.5-3.6l-3.8-78.3
		l89.2-11.3L983,335.1z M904.1,379.1l49.8,39.2l-4.6,12.9l-15,47.2l-55.1-19.1L904.1,379.1z M846,319.1l42.2-41.7l10,9.7l3.7,76
		L846,319.1z M851.5,337.9L820.1,439l-65.6-22.6l72.5-78.5l10.9-10.7L851.5,337.9z M691.1,353.8c-15.6,15.6-45.7-0.8-46-0.9
		l-0.2-0.2l-6.8-3l45.3-89.4l66.3,28.9C740.5,299.8,707,337.9,691.1,353.8z M634.8,348.2l-55-24l34-94.2l66.3,28.8L634.8,348.2z
		 M629.7,358.3l-45,89l-42.4-18.7l0.4-1.2l33.3-92.5L629.7,358.3z M582.9,450.6l-22.1,43.6l-40.3,2.4l20.5-64.4L582.9,450.6z
		 M562.1,497.9L562,496l1.7,0.8l22.6-44.7l17.6,7.7L490.6,590.3l28.6-89.9L562.1,497.9z M478,592.7l-58.8-22.9l26.7-63.6l52.6,22.3
		L478,592.7z M476.8,596.3l-1.9,5.9l-59.8-22.8l2.6-6.2L476.8,596.3z M473.8,605.8l-8.7,27.4L402.7,609l10.9-26.1L473.8,605.8z
		 M463.9,636.7l-13.3,41.7l-65.4-27.8l16-38.2L463.9,636.7z M449.5,681.9l-19.7,61.8l-38.6-12.5l-1.9-0.6l-5.1,1.9l-28.6-11.3
		l28.2-67.2L449.5,681.9z M250,857.5l13.2-36.5l48.2,19.8l-13.1,32.4l-4.4,1.6l-0.4,0.8L250,857.5z M291.6,878.8L272,914.9
		l-37.2-15.4l13.9-38.5L291.6,878.8z M264.5,817.4l11.5-32.1l0.2,0.1l64.6-24.5l15.1,20.4l-2.7,24.7l-23.9-9.5l-16.5,40.6
		L264.5,817.4z M344.5,759.8l45.1-17.2l36.8,12.1l-12.9,40.4l-33.9-15.6h-20.7L344.5,759.8z M379,734.4l-34.4,13l9.6-22.8L379,734.4
		z M341.6,744.8l-9.4-28.8l18.5,7.3L341.6,744.8z M272.6,784l-11.5,32l-71.2-29.2l12-30.8L272.6,784z M259.7,819.4L246.5,856
		l-71.9-29.8l13.9-35.9L259.7,819.4z M245.2,859.6l-13.9,38.5l-72.9-30.2l14.8-38.1L245.2,859.6z M233.5,903l36.7,15.3l-16.9,31.1
		l-31.8-13L233.5,903z M301.7,883.8l41.7-14.9l-44,99.2l-35.6-14.5L301.7,883.8z M303,871.4l28.4-70l21.4,8.5l-5,45.4L303,871.4z
		 M356.4,811.4l46.9,18.6l-0.7,2.5l-19.4,10.2l-31.5,11.2L356.4,811.4z M356.9,808.6l2.7-23.8h19.2l33.6,14.7l-8.1,26.9L356.9,808.6
		z M423.5,800.8l13.6-42.7l42.2,13.8l-30.2,99.5l-42-13.5L423.5,800.8z M482.8,773.1l47.6,15.6l-31.1,98.9l-46.6-15L482.8,773.1z
		 M501.7,892.3l39.5,12.8l-13.4,42.5l-39.5-12.8L501.7,892.3z M526.8,951.2l-18.5,59l-39.6-12.5l18.6-59.3L526.8,951.2z
		 M530.2,952.4l32.7,10.6l-18.3,58.9l-33-10.4L530.2,952.4z M531.4,948.7l13.4-42.5l32.7,10.5l-13.3,42.6L531.4,948.7z M581,917.9
		l32.7,10.6L600.1,971l-32.4-10.5L581,917.9z M617.3,929.6l46,14.8L650,987.1l-46.3-15L617.3,929.6z M666.8,945.5l52.1,16.8
		l-13.3,42.8l-52.1-16.9L666.8,945.5z M708.1,1009.8l51.2,16.6l-72.3,51.5L708.1,1009.8z M777.4,1027.7l28.4-18.9l41.8,32.5l-0.5,43
		L777.4,1027.7z M809.1,1006.5l39.1-26.1l-0.5,56L809.1,1006.5z M777.8,1013.8l29.2-97.3l71.3,30.3L777.8,1013.8z M808.7,912.9
		l9.3-30.2l63.8,20.8v40.3L808.7,912.9z M820.5,871.9l23.9-75l44.5,14.2l-4.3,81.8L820.5,871.9z M845.6,793.2l10.9-34.2l34.8,7.3
		l-2.1,40.8L845.6,793.2z M857.7,755.5L902.8,614l12,2.7L897.9,643l-0.3,0.5l-6.2,119L857.7,755.5z M901.3,644.6l17.4-27.1
		l53.1,11.3l-2.4,3.6l-0.2,0.2l-40.9,137.4l-33-6.9L901.3,644.6z M920.9,614.2l59.9-93.4l68.9-9.2L974,625.5L920.9,614.2z
		 M1016.7,568l4.8,19.3l-26,42.8l-17.5-3.7L1016.7,568z M1025.6,587.8l37.4-61.5l18.4,94.2l-43.3,17.7L1025.6,587.8z M1037.6,768.3
		l41.2-0.8l-0.8,43l-40.9,28L1037.6,768.3z M1037.7,764.6l1-122.5l42.9-17.5l-2.7,139.3L1037.7,764.6z M1081.5,823.5l44-29.2
		l1.5,151.6h-47.8L1081.5,823.5z M1126.8,554.6l39.5,31.1l-39,16L1126.8,554.6z M1125.5,423.3l25.8-41.3l22.2,0.8v108.6l-46.6,6.2
		L1125.5,423.3z M1149.8,376.2l-1,1.6l-62.7-21l5.9-9.3l0.4-0.6l-12.4-81.4l100.8-12.8c0.5,1.4,0.8,2.9,1.3,4.3L1149.8,376.2z
		 M1126.1,255.8l-11.4-64.9l45.4-5.9c6.1,19.4,12.8,41.3,19.7,64L1126.1,255.8z M1122.3,256.3l-42.8,5.4l-9.9-64.9l41.4-5.5
		L1122.3,256.3z M1088.4,346l-6.4,9.9l-31.6,2.6l-11.5-87.9l37.2-4.7L1088.4,346z M1046.7,358.9l-61.8,5l9.1-26l8.9-62.6l32.3-4.2
		L1046.7,358.9z M836.1,313.1l-16.3-5.9l53.6-109.4l53.2,25.9L836.1,313.1z M871.6,192.7l-48.9-23.9l15.5-29.4l51,17.3L871.6,192.7z
		 M757.5,284.3l-2.6-0.9l-2.4,2.8L685.2,257l71.7-145l77.6,26.3L757.5,284.3z M681.7,255.5l-66.3-28.9l69.7-134.5l2.1-3.9l66.2,22.4
		L681.7,255.5z M605.1,222.1l-33.9-14.7l32.9-78.3l40.5,16.7L605.1,222.1z M603.4,225.5l-34,94.2l-38.2-16.7l38.6-92.1L603.4,225.5z
		 M565.6,330.3l-33.7,93.2l-0.2,0.4l-43.4-19.1l38.4-91.4L565.6,330.3z M530.7,427.5l-31.1,97.3l-52.3-22.2l39.7-94.4L530.7,427.5z
		 M443.9,501.2l-82-34.9l39.7-50.3l65.8,29.2L443.9,501.2z M442.4,504.6l-26.7,63.7l-102.9-40.1l46.6-58.8L442.4,504.6z
		 M415.2,571.9l-2.1,6.2l-111.6-42.7v-8.2L415.2,571.9z M411.5,581.5l-28.8,67.6l-81.3-35v-74.8L411.5,581.5z M380.4,652.5
		l-28.2,67.2l-21.4-8.4l-30.4-92.8L380.4,652.5z M274.5,533.1l-53.6,44.4l0.7-23l22-49.2l36.2,14.1L274.5,533.1z M281.2,515.9
		l-36-14.1l31.1-69.4l31.4,14L281.2,515.9z M317.9,451.1l12.2,5.4L307,506.4l-14.7,12.2L317.9,451.1z M241.6,500.5L205,486.2
		l30.9-71.7l36.8,16.4L241.6,500.5z M192.8,395.2L160,468.6l-36.5-14.3l32.4-75.6L192.8,395.2z M157.3,375.3l48.1-112l17.6,63.1
		l0.4,0.2l-29.1,65.3L157.3,375.3z M119.9,453l-30.4-11.9l33.4-77l29.6,13.1L119.9,453z M118.4,456.5l-22.6,52.4l-29-15.5L88,444.6
		L118.4,456.5z M121.9,457.8l36.5,14.2l-25.1,56.1l3.4,1.5l25.1-56.2l37.3,14.6l-42.4,53.6l-57.7-30.8L121.9,457.8z M163.5,470
		l32.7-73.2l36.2,16.2l-31,71.9L163.5,470z M233.9,409.5l-36.2-16.1l29.4-65.8l37.6,10.4L233.9,409.5z M212.6,247.3l0.6-1.1l26-58.3
		l38,15.5l-46.7,107.4L212.6,247.3z M210.9,241.2l-13.7-48.8l1.3-3l-3.4-1.5l6.9-15.7l33.7,13.9L210.9,241.2z M203.9,257.6
		L154,373.7l-29.6-13.1l65.8-151.9L203.9,257.6z M114,356l-36.1-15.4l29.8-68l35.5,16.2L114,356z M112.6,359.5l-33.3,76.7
		l-34.6-19.6l31.8-72.5L112.6,359.5z M77.8,439.8l-21,48.3l-35.2-18.5l21.7-49.4L77.8,439.8z M117.8,524.9l37.1,19.8L130,606
		l-39.4-17.5L117.8,524.9z M159,544.9l43.9-55.5l37.1,14.5l-22.1,49.4l-0.2,0.3l-0.8,27l-50.3,41.6l-33.3-14.7L159,544.9z
		 M271.9,540.3L223,668.9l-30.8-12.2l23.2-21.8l-2.6-2.7l-55.3,51.9l-24.7-28.9L271.9,540.3z M157.7,689l49.1,22.3l-11.4,29.9
		l-65.5-26L157.7,689z M191.3,751.8l-11.9,30.8l-70.6-28.9l11.2-30.2L191.3,751.8z M178.1,786L164.2,822l-70-28.9l13.3-35.9
		L178.1,786z M162.8,825.4L148,863.6l-69.4-28.7l14.2-38.4L162.8,825.4z M157,871.4l73,30.2L217.9,935L144,904.9L157,871.4z
		 M220.2,939.9l31.4,12.8l-22.3,40.9l-25.5-8.4L220.2,939.9z M227.4,997l-20.4,33.9l-17.6-5.8l13.1-36.2L227.4,997z M205,1034.2
		l-21,35.1l-9.3-3.2l13.6-37.5L205,1034.2z M181.9,1072.6l-12.8,21.3l-7.3,7.4l11.4-31.6L181.9,1072.6z M174.5,1104.5l34.8,18.1
		l-55.8,57.2l-28.4-25.5L174.5,1104.5z M212.8,1124.4l13.9,7.2l-36.2,81.4l-34.2-30.7L212.8,1124.4z M215.5,1121.6l28.7-29.5
		l-16,36.1L215.5,1121.6z M212,1119.8l-34.8-18l0.8-0.8l59.7-99.5l37.8,20.1l-27,60.7L212,1119.8z M239.7,998.1L262,957l35.8,14.6
		l-20.6,46.4L239.7,998.1z M309.2,955.3l53.8,15.4l-10,34.5l-59.2-15.4L309.2,955.3z M310.7,951.9l13.7-31l49.3,12l-9.8,34.3
		L310.7,951.9z M326,917.4l22.3-50.3l39.1-14l10.9-5.7l-23.5,81.8L326,917.4z M406,861.5l42,13.5l-20.4,67.2L385.8,932L406,861.5z
		 M451.6,876.2l46.6,15L465,996.7l-45.5-14.4L451.6,876.2z M463.9,1000.1l-6.2,19.8l-45.7-12.7l6.5-21.4L463.9,1000.1z
		 M467.4,1001.3l39.6,12.5l-25.1,80l-39.9-11.6L467.4,1001.3z M510.6,1015l33,10.4l-24.7,79.2l-33.4-9.7L510.6,1015z M556.5,1119.4
		l51.3,15l-61.2,43.5L556.5,1119.4z M553.7,1114.7l-31.1-9l24.6-79.2l31.8,10L553.7,1114.7z M548.3,1023l18.3-58.9l32.3,10.4
		l-18.8,58.5L548.3,1023z M602.5,975.7l46.3,15l-18.1,58.3l-47.1-14.9L602.5,975.7z M652.4,991.8l52.1,16.9l-18,58l-52.2-16.5
		L652.4,991.8z M757.9,1041.2l-36.2,124.3l-43.3-10l5.4-61.5L757.9,1041.2z M731.6,1171.5l46,9.7l26.5,20.4l-90.6,32L731.6,1171.5z
		 M781.2,1179.1l62.6-83.3l29.2,23.6l-65.2,80.2L781.2,1179.1z M850.6,1086.9h0.3l1.1-107.7l36-22.7h5.7l-2.5,141.8l-11.2,13.1
		L850.6,1086.9z M987.4,956.5h44.1l-26.8,71.6l-18-42.2L987.4,956.5z M1035.5,956.5h39.7l-1.1,55.4l-49,62.5l-18.2-42L1035.5,956.5z
		 M1073.9,1016.9l-1.1,58.3v0.9l2.9,2.3l-31,40l-17.9-41.3L1073.9,1016.9z M1075.4,945.9h-39.2l0.8-92l40.7-27L1075.4,945.9z
		 M1079,956.5h49v55.5l-50,64.6h-1.4L1079,956.5z M1127.5,605.8l42.3-17.3l0.8,0.6l2.1,1.1h0.8v156l-24.6,16.3l-19.7,0.4
		L1127.5,605.8z M1142.7,766.4l-13.5,9.3l-0.2-9L1142.7,766.4z M1161.4,856v-40h12.2v39.6L1161.4,856z M1128,540.2v-38.9l45.6-6.1
		V576L1128,540.2z M1188.3,238.9c-6.7-22.3-12.4-40.8-17.2-56.2l33.9-9.6l16.9,54.5l-31.6,17.9
		C1189.6,243.2,1189,241.1,1188.3,238.9z M1238.9,99.8l-21.6-52.6c13.6-0.6,30.5-1.9,47.3-5.1L1238.9,99.8z M1236.8,104.5
		l-28.3,63.7l-0.9,0.2l-36.2-116.6c7.7-2.5,16.1-4.3,24.1-4.3c4.3,0,10.6,0,17.9-0.2L1236.8,104.5z M1203.9,169.4L1170,179
		c-22.3-71-25.6-72.9-28.3-74.4c-2.4-1.4-9.4-7.2-18.3-15.3l16.9-23.3c3.1-1.9,14.1-8.3,27.3-13.1L1203.9,169.4z M1135.3,113.9
		c3.3,5.1,12.2,31.5,23.5,67.4l-44.8,5.9l-12-68.4l14.7-20.2C1125.4,106.1,1132.2,111.8,1135.3,113.9z M1110.3,187.6l-41.3,5.5
		l-6.8-45l36.7-26L1110.3,187.6z M1065.3,193.6l-51.7,6.8l2.8-20l42.4-29.9L1065.3,193.6z M1065.8,197.3l9.9,64.9l-72.2,9.1l9.5-67
		L1065.8,197.3z M936.9,216l-6.5,4l-0.5,0.3l-0.5,0.5l-54.4-26.5l17.8-36.3l42.2,14.3L936.9,216z M894.5,154.7l24.1-49.2l13.7,4.8
		l2.5,58L894.5,154.7z M890.9,153.4L840,136.1l25.9-49.1l49.1,17.1L890.9,153.4z M836.4,134.9l-43.8-14.8L801,93l-3.6-1.1l-8.4,27
		l-30.5-10.3l24.8-50.1l78.9,27.5L836.4,134.9z M781.6,53.7l-29.8-11.2L791-23.4l23,11.6L781.6,53.7z M779.9,57L755,107.3
		l-66.1-22.4l27.7-51.7L779.9,57z M678.2,81l-46.1-18.6l20.1-47.7l29.5,12.5l18,14L678.2,81z M676.5,84.4l-1.4,2.5l-28.8,55.6
		l-40.7-16.8l25.1-59.8L676.5,84.4z M602.1,124.2l-18.5-7.6l22.6-60.1l20.9,8L602.1,124.2z M600.6,127.7l-32.8,78.2l-15.3-6.7
		l29.8-79.1L600.6,127.7z M566.3,209.4l-13.8,32.9l-14.2-5.5l12.8-34L566.3,209.4z M533.5,239l17.5,6.8l-23.4,55.8L473.8,278
		l39.6-91.6l34.3,15L533.5,239z M523.3,311.8L485,403.2L430.1,379l39.2-90.7L523.3,311.8z M483.5,406.7l-14.7,35.2L404,413
		l24.3-30.7L483.5,406.7z M309.2,526.8l-14.4-5.6l16.3-13.5l-0.5-0.5l23.5-50.7l59.6-89.3l30.9,13.6L309.2,526.8z M331.9,453.1
		l-12.6-5.6l36.9-97l34.1,15L331.9,453.1z M308.9,443l-31.2-13.9l40.2-89.9l26.5,10.5L308.9,443z M274.3,429.1l-36.9-17l31.1-71
		h45.4L274.3,429.1z M232.3,317.3l-0.2-0.8l48.5-111.9l35.3,14.6l-46.6,108.3L232.3,317.3z M278.6,199.7l-37.8-15.6l44-98.1
		l36.4,15.8L278.6,199.7z M237.2,182.6l-33.7-13.9l43.2-99.2l34.6,15L237.2,182.6z M191.7,186.3l-38.5-17.6l51.4-117.5L243.3,68
		L191.7,186.3z M183.8,195.1l-39,90.3l-35.5-16.2l39.4-90.2L183.8,195.1z M104.3,271.1l-29.8,68.1l-39-16.7l30.2-69.1L104.3,271.1z
		 M73,342.7l-31.6,72.2l-37.1-21L34,326L73,342.7z M1.1,391.9l-32.6-18.5l28.9-63.1l33.2,14.1L1.1,391.9z M2.8,397.1L40,418.3
		l-21.7,49.5L-19.4,448L2.8,397.1z M20.1,473.1l35.2,18.5l-29.6,68.2l-36.5-16.2L20.1,473.1z M34.6,567.8l94,41.6l-15.4,37.9
		l-95.6-40.1L34.6,567.8z M132,611l31.5,14l-56.1,46.3L132,611z M129.9,657.6l24.8,29l-28.8,27l-43.1-17.1L129.9,657.6z M116.4,722
		l-11.2,30.1L65.9,736l27.2-23.2L116.4,722z M103.9,755.6l-13.3,35.9l-60.5-25.1l32.6-27.8L103.9,755.6z M89.3,795.1l-14.2,38.4
		L-6,799.8l-1.7-1.1l34.6-29.5L89.3,795.1z M77.3,838.4l69.3,28.6l-13,33.5l-68.9-28L77.3,838.4z M142.7,908.3l74,30.2l-16.5,45.6
		l-77.1-25.3L142.7,908.3z M199,987.6l-13.1,36.2L107.9,998l13.8-35.7L199,987.6z M184.5,1027.4l-13.6,37.5L94.7,1039l12-37.5
		L184.5,1027.4z M169.7,1068.5l-13.4,37.2l-74.1-27.6l11.4-35.5L169.7,1068.5z M154.3,1109l-28.6,28.8L69.4,1118l11.6-36.3
		L154.3,1109z M122.8,1140.7l-35,35.3l-32.9-12.6l13.4-41.9L122.8,1140.7z M122.5,1157l28.4,25.5l-41,42.1l-48.1-6.5L122.5,1157z
		 M153.8,1185l35.2,31.7l-7.7,17.5l-66.6-9L153.8,1185z M280.5,1019.7l11.7-26.4l59.7,15.5l-4.5,15.6l-7.3,26.9L280.5,1019.7z
		 M358.3,1027.5l26.4-91.8l41.9,10.2L389.9,1067l-39.3-11.4L358.3,1027.5z M410.8,1010.8l45.7,12.6l-18.2,57.7l-44.9-13.1
		L410.8,1010.8z M440.9,1086.8l51.3,14.4l-24.4,81.9l-22.6,18l-2.8,15l-0.8,0.5l13.3,27.7l-2.8,3h-61.4L440.9,1086.8z M446.4,1218
		l31.1-19.6l13.8,18.9l-33.4,23.8L446.4,1218z M494.2,1229.2l42.4,16.4l-2,21.1l-66.7-18.8L494.2,1229.2z M497.7,1226.6l33.1-23.6
		l21.5,23.2l-14.4,16L497.7,1226.6z M534,1200.7l17.5-12.5l17.9,19l-14.5,16.1L534,1200.7z M554.6,1186.1l51.1-36.5l-3.8,12.9
		l-19.6,8l-6.1,29.2l-4.3,4.7L554.6,1186.1z M585.5,1173.3l19.4-7.9l5.2-17.6l-6.8,57.2l-23.3-5.7L585.5,1173.3z M557.3,1115.8
		l25.1-78.1l47.1,14.9l-0.9,2.8l-16.3,75.6l-0.8,0.6L557.3,1115.8z M632.4,1056.4l0.8-2.7l52.2,16.5l-3.5,11.2l-64.9,46.3
		L632.4,1056.4z M679.7,1096.9l-5.1,57.4l-50.1-18.1L679.7,1096.9z M677.7,1159.2l42.9,10l-19.3,66.1l-40.1-17.2L677.7,1159.2z
		 M700.3,1238.9l-20.1,69.1l-40.9-11.5l20.9-74.8L700.3,1238.9z M704.5,1264.7l13.1,32.4l-25.2,9.4L704.5,1264.7z M706.2,1258.9
		l6.1-20.7l83.9-29.6l19.7,52l-94.8,35.3L706.2,1258.9z M799.7,1207.3l8.1-2.8l34,26.3l-22.9,27.2L799.7,1207.3z M810.8,1202
		l65.1-80.1l34,27.6l-65.7,78.4L810.8,1202z M912.9,1151.8l30.8,24.9l-63.7,78.6l-32.7-25.2L912.9,1151.8z M920.1,1143.2l17-20.3
		l-2.9-2.4l-17.1,20.4l-34.2-27.7l101.3-124.7l38.1,88l-71.7,91.5L920.1,1143.2z M1024.1,1080.3l17.9,41.4l-57.2,73.9l-31.2-25.4
		L1024.1,1080.3z M1043.8,1125.7l16.2,37.4l-44,57.8l-28.2-22.9L1043.8,1125.7z M1046.4,1122.2l32.2-41.6l27.4,21.9l-43.5,57.1
		L1046.4,1122.2z M1080.9,1077.7l48.5-62.7l26.4,22l-47.6,62.5L1080.9,1077.7z M1158.2,1036l-26.4-22.6l45-56.8h42.3L1158.2,1036z
		 M1178.1,945.9V757.3l44-29.1l2.7,217.6H1178.1z M1221.7,351.6c-6-20.7-17.7-60.9-30.2-102.6l39.1-22.2l40.3,17.8L1221.7,351.6z
		 M1281.3,249.3l36.2,16l-53.7,117.1l-37.4-1.4l-0.2-12L1281.3,249.3z M1263.1,386.1l2.2,92.9l-37.1,4.9l-1.7-99.2L1263.1,386.1z
		 M1265.4,482.8l2.4,99.5l-38-1.4l-1.6-93.2L1265.4,482.8z M1263.9,593.4l8.7,56.4l-30.2,48.4l-10.5,7.1l-2-113.2L1263.9,593.4z
		 M1261.9,698.6v0.2l17.2-1.1l7.3,114.3l-52.6,2.7l-1.7-95.7L1261.9,698.6z M1282.8,697.4l42.6-2.9l6.6,115.2l-41.9,2.1
		L1282.8,697.4z M1329.2,694.3l36.9-2.5l8.7,115.8l-39,2L1329.2,694.3z M1365.1,628.2l43.5-29.6l58.8,0.1l-3.2,30.5l-41.6-1
		l-0.1,1.4c-0.3,4.3-3.2,46.9-3.4,55.2l-49.4,3.2L1365.1,628.2z M1425.3,631.2l41.5,1l3.6-33.5l26.3,0l-13.2,81.9l-61.5,3.9
		C1422.2,677.4,1424,647.6,1425.3,631.2z M1500.2,598.7l114.2,0.1l-11.9,74.1l-115.6,7.4L1500.2,598.7z M1582.5,586.7l4.6-37.6
		l54.8,37.9L1582.5,586.7z M1664.6,587.1L1556,512.9c0.5-10.9-0.3-19.4-0.8-23.3l144.2,58.5l-4.7,39.1L1664.6,587.1z M1487.8,458.2
		l1.2-2.1l203.7-20.8l-2.7,23l-19.4-2.4l-0.1,3.6l19.1,2.2l-1.6,13.7l3.4,0.5l5-41l16.8-1.7l-13.3,110.9L1487.8,458.2z
		 M1660.8,434.9l-139.2-36.1l25.4-44.8l203.2,71.8L1660.8,434.9z M1536.4,346.2l-58.1-20.5l26.2-42.7l54.3,23.6L1536.4,346.2z
		 M1474.7,324.4l-41.6-14.7l40.8-93.6l52.4,24.1L1474.7,324.4z M1444.1,198.2l11.6-26.7c10.8-0.3,21.6,0.4,32.1,2.5
		c26.2,5.2,52.7,5.3,77.5,2.6l-37,60.4L1444.1,198.2z M1590.9,142.1l29.5,12.9c-13.9,3.8-28.3,6.9-43,9.1L1590.9,142.1z M1488,97.2
		l99.5,43.3l-14.8,24.1c-27.6,3.6-55.8,3.8-82.7-1.5c-9.4-1.9-19.2-2.8-29.4-2.7L1488,97.2z M1413.5,64.8l71,30.9l-28.1,64.8
		c-14.3,0.4-29.3,2.5-44.9,6.4c-7,1.8-14.2,3.9-21.5,6.3l-21.6-10.1L1413.5,64.8z M1410.1,63.3l-45,98.2l-35.6-16.6l45-97.8
		L1410.1,63.3z M1330.2,12.2c24.5-19.8,59.9-50.7,78.9-67.4L1365.7,39l-39.4-17.9L1330.2,12.2z M1364.1,42.5l-45,97.5l-36.8-17.2
		l42.5-98.2L1364.1,42.5z M1323.9,17.2l-1,2.4l-1.3-0.6C1322.4,18.4,1323.1,17.8,1323.9,17.2z M1318.2,21.6l3.2,1.4l-42.5,98.2
		l-37.6-17.6l27.9-62.4C1287,37.4,1304.6,31.3,1318.2,21.6z M1276.3-35.3l33.1,49.2c-14.9,9.8-36.7,16.3-65.2,19.7l-3.4-53.9
		C1252.9-24.5,1264.9-29.7,1276.3-35.3z M1192.5-9c14.5-1.3,29.6-4.9,44.6-10l3.3,53c-13.6,1.4-28.6,2.2-45.1,2.2
		c-9.2,0-18.7,2.1-27.4,4.9l-13.2-42.5C1167-5.2,1179.7-7.8,1192.5-9z M1151.1-0.4l13.2,42.6c-16.9,6-30.2,14.4-31,14.9l-0.9,0.6
		L1115,81.8c-12.2-11.2-26.2-24.8-37.1-36.5C1086.7,36,1111.6,12.7,1151.1-0.4z M970.8-4c39-7.6,63.3-7.7,72.1-0.4
		c4.3,3.6,4.5,8.7,4.4,16.7c-0.1,4.2-0.2,8.5,1.1,12.4c3.7,12,35.6,43.8,60,66.2l-16,22l-78.6,55.5C1003.6,142.5,967,48.2,956.3,9
		c-0.9-3.3-1.4-6.8-1.7-10.5C959.8-2.1,965.2-2.9,970.8-4z M852.3-67.7c2.3,3.1,4.2,8.2,6.4,14.1c8.3,22,21.5,57.2,84.8,53.3
		c0.3,4.3,0.9,8.5,2,12.4c7.1,26.1,24.8,74.4,39.2,112.6L785.1,54.9l32.2-65.1l2,1l1.7-3.3l-2-1l29-58.6
		C849.9-70.5,851.4-69,852.3-67.7z M791.3-105.8c20.7,10.6,42.2,22.4,53.7,31.2l-29.3,59.3l-57.4-28.9L791.3-105.8z M756.4-40.8
		l31.1,15.6l-39.3,66.2l-29.8-11.2L756.4-40.8z M689.5-74.4l56.8,28.6l-44.9,83.6l-17.7-13.7l-1.1,1.5l0.8-1.7l-29.8-12.6
		L689.5-74.4z M637.4-100.6L686.1-76l-36,85.8L599-11.8L637.4-100.6z M597.6-8.3l51.2,21.6l-20.1,47.8L576.2,41L597.6-8.3z
		 M574.7,44.4l28.1,10.8l-53.7,142.6l-34.2-14.9L574.7,44.4z M571.2,42.8l-59.8,138.6L480,167.7l17.2-38.9l-4.3-11.2l12.8-28.5
		l11.2-5.6L541.1,28L571.2,42.8z M511.1,13.3l26.7,13.1L514,80.9l-18.8,9.4L479.5,82L511.1,13.3z M477.9,85.4l17.2,9.2l5.2-2.6
		l-9.3,20.8l-1.8-4.7l-18.1-7.7L477.9,85.4z M469.5,103.8l16.7,7.1l7,17.9l-16.6,37.5l-29.9-13L469.5,103.8z M445.2,156.7l29.9,13
		l-40.4,91.2l-31.1-13.6L445.2,156.7z M398.7,257.5l67.1,29.3l-39.2,90.7l-69.1-30.5L398.7,257.5z M390.2,249.2l-41.4,90.1
		l-26.5-10.5l36.9-88.7L390.2,249.2z M318.8,329.8h-45.4l89.6-208.9l36,16.1L318.8,329.8z M420.9-11l0.5-1.9v-23.3l52.6-4.9
		l-73.7,173.1l-35.9-15.6l54.5-126.5L420.9-11z M397-39.8l10.8,4.7l9.1-0.8v17.1l-9-12.2l-13.4,5.5L397-39.8z M393.2-41.6l-3.6,18.1
		l-19,11.4L322.7,98.2l-36.4-15.8L351.1-62L393.2-41.6z M347.6-63.5L282.8,81l-34.6-15l63.9-146.7L347.6-63.5z M308.8-82.4
		l-64,146.9l-38.7-16.8L271-100.6L308.8-82.4z M250.8-110.3l16.8,8.1l-65,148.4l-47.9-20.7L250.8-110.3z M152.7,28.6l48.5,21
		l-51.4,117.4l-38.7-17.7l35.1-80.5l0.8-1.7l-16.3-7.4L152.7,28.6z M8.4-33.9l140.8,61l-22,31.1L-9.3-3.9L8.4-33.9z M-55,73.6
		l43.8-74.2l136.1,61.9l-50.4,71.4L-55,73.6z M73.1,144.6l30,13.7l-39.4,90.2l-31.5-14.4L73.1,144.6z M30.6,237.5l31.6,14.4L32,321
		l-33.1-14.1L30.6,237.5z M-3.3,222l30.5,13.9l-31.8,69.4l-30.6-13.1C-17.9,253.5-6.4,228.4-3.3,222z M-53.6,334
		c6.1-13.9,11.7-26.7,16.9-38.4l30.5,13.1l-28.7,62.7L-60.5,357C-59.3,349.7-57.1,342.1-53.6,334z M-52.3,409.8
		c-6.8-13.3-11.2-29.8-8.9-48.8l24.8,14.1L-52.3,409.8z M-50.1,413.9l16.9-37.1l32.7,18.5L-22.6,446
		C-27.3,442.3-40.3,431.1-50.1,413.9z M-20.9,451.5l37.7,19.8l-31,70.8l-38.7-17.2L-20.9,451.5z M-72.4,569.5l17.9-41.2l38.7,17.2
		l-17.6,40.4L-72.4,569.5z M-29.9,587.4l17.6-40.3l36.6,16.3L7.2,602.9L-29.9,587.4z M16.1,610.8l95.6,40.1l-10.4,25.5L78.9,695
		l-84.7-33.7L16.1,610.8z M-10.3,671.8l99.4,39.4l-100,85.4l-41.4-28L-10.3,671.8z M-46.6,827.1L-73,816.4l19.2-44.4l40,27
		L-46.6,827.1z M-42.8,828.7l32.1-27.4l2.7,1.8l0.2,0.1L73.8,837l-12.6,34.1L-42.8,828.7z M63.4,876l68.8,28l-19.8,51.2l-69.8-22.9
		L63.4,876z M41.2,935.9l69.7,22.9l-13.8,35.6L28,971.5L41.2,935.9z M26.7,975.1L95.9,998l-12,37.4l-70.6-24L26.7,975.1z M12,1015
		l70.9,24l-11.2,35.2L0,1047.6L12,1015z M-1.4,1051.1l71.8,26.7l-11.7,36.5l-73.9-25.9L-1.4,1051.1z M-16.4,1091.9l74.1,26
		l-13.4,41.6l-75.1-28.8L-16.4,1091.9z M17.1,1244.3l-79.9-27l14.7-39.7l76.2,32.5L17.1,1244.3z M-46.9,1174.1l14.8-40l75.2,28.8
		l-14,43.6L-46.9,1174.1z M29.9,1250.3l28.6-28.8l48.2,6.5l-41,42.2L29.9,1250.3z M69,1272.1l42.3-43.5l68.3,9.2l-34.1,76.7
		L69,1272.1z M239,1351.1l-90.1-35.1l9.4-21.2l52.4,24.6l1.6-3.4l-52.5-24.6l23.6-53.2l101.7,13.7L239,1351.1z M296,1378.9l-46.6-21
		l46-98.3h37.1L296,1378.9z M335.9,1247.4h-36.8l50.6-187.2l39.1,11.9L335.9,1247.4z M339.9,1247.4l52.6-174.7l44.8,13.6
		l-50.5,161.1H339.9z M400.3,1325.8l-45.3,4.3l18-70.5h45.4L400.3,1325.8z M444.9,1336.5l-40.7-11l18.2-65.9h33.3l8.3-7.4l3.1,0.2
		L444.9,1336.5z M494.2,1317l-37.9-10.2l14.4-54.2l36.5,10.3L494.2,1317z M536.9,1328.6l-39-10.6l12.9-54.1l41.9,11.9L536.9,1328.6z
		 M580.2,1340.3l-39.7-10.7l15.7-52.8l37.3,10.6L580.2,1340.3z M594.1,1283.7l-56-15.9l2.1-22.6l38.3-42.4l24.4,5.9L594.1,1283.7z
		 M597.9,1284.6l16.6-141.2l6.3-4.5l53.3,19.2l-38.4,137.2L597.9,1284.6z M664.1,1363.1l-40.7-10l14.9-53.2l40.9,11.5L664.1,1363.1z
		 M675.5,1364l15.5-53.1l28-10.4l17.2,42.8L675.5,1364z M739.8,1342.2l-17.3-42.9l34.9-13l17.6,44L739.8,1342.2z M778.5,1329.1
		l-17.7-44.1l56.4-21l17.5,46L778.5,1329.1z M820.5,1261.9l24.2-28.9l32.8,25.3l-39.8,49.2L820.5,1261.9z M854.1,1350.6l-14.8-39
		l41.2-50.9l33.7,26L854.1,1350.6z M916.6,1283.8l-33.7-26.1l63.7-78.6l31.4,25.4L916.6,1283.8z M949,1308.7l-29.4-22.7l61.2-79.2
		l28.3,22.9L949,1308.7z M1007.8,1354l-49.7-38.4l59.9-78.8l47.9,38.7L1007.8,1354z M1024.8,1227.9l90-118.4l46.6,37.1l-88.8,119.9
		L1024.8,1227.9z M1075.5,1268.9l21-28.4l88.3-9.1l-57.7,79.5L1075.5,1268.9z M1169,1344.6l-38.7-31.4l17.6-24.2l40.1,27.2
		L1169,1344.6z M1189.9,1313.1l-40-27.1l39.9-55l29.6-3.1l6.5,31.1L1189.9,1313.1z M1244.9,1350.3l-51.7-35.2l34-51L1244.9,1350.3z
		 M1228.9,1254.6l-5.6-27.1l25.4-2.6L1228.9,1254.6z M1222.5,1223.8l-6.1-29.4l48.5-66.8l18.5,15.3l18.6,72.6L1222.5,1223.8z
		 M1305.6,1215.2l-19-74.4l-19.6-16.3l22.3-30.8l58,117.1L1305.6,1215.2z M1401.5,1205.3l-50.1,5.2l-59.5-120.2l28.6-39.4
		L1401.5,1205.3z M1318.6,1047.3l-54.3,74.9l-49.5-41.2l48.5-65.4l14.8-10.3L1318.6,1047.3z M1275.3,1002.6l-14.6,10.1l-0.2,0.2
		l-48.7,65.7l-45-37.4l64.2-84.3L1275.3,1002.6z M1236,945.9l-2.1-125.8l52.7-1.8l8.1,127.6H1236z M1307.5,945.9h-9l-8.1-128.6
		l41.9-3l5.9,105.4L1307.5,945.9z M1341.8,914.8l-5.8-101.5l39-2l5.4,72.2L1341.8,914.8z M1384.1,881.1l-5.2-69.7l70.5-3.6l-0.2-3.8
		l-70.6,3.6l-8.7-115.8l269.2-17.3L1384.1,881.1z M1644.1,670.3l-38,2.4l12.1-73.9l43.7,0.1l-9.4,64.7L1644.1,670.3z M1685.1,667.7
		l-20.6,1.3l22.7-18.5L1685.1,667.7z M1656.3,660.4l9.1-61.5l27.9,0l-4.2,34.8L1656.3,660.4z M1727.8,664.9l-39.2,2.5l8.2-68.5
		l38.8,0L1727.8,664.9z M1737.1,587.4l-38.8-0.2l4.5-37.7l37,15L1737.1,587.4z M1797,587.7l-56.3-0.3l2.6-21.5L1797,587.7z
		 M1772.8,468.3l-6.1,41.9l-16.4-2.5l5.2-43.5L1772.8,468.3z M1740.3,560.6l-37-15l13.6-112.7l39.2-4L1740.3,560.6z M1817.6,418.9
		l-58.7,6l-210-74.3l22-38.8L1817.6,418.9z M1561.4,301.8l-1,1.7l-54.2-23.5l23.5-38.3l49.8,22.9L1561.4,301.8z"/>
</svg>
